{
  "accessors": [
    {
      "bufferView": 1,
      "componentType": 5126,
      "count": 2609,
      "max": [
        0.060778800398111343,
        0.061679169535636902,
        0.18699601292610168
      ],
      "min": [
        -0.094380423426628113,
        -0.058714639395475388,
        0.033309899270534515
      ],
      "type": "VEC3"
    },
    {
      "bufferView": 1,
      "byteOffset": 31308,
      "componentType": 5126,
      "count": 2609,
      "max": [
        0.99904388189315796,
        0.9992901086807251,
        0.99925249814987183
      ],
      "min": [
        -0.99940204620361328,
        -0.99939882755279541,
        -0.99998223781585693
      ],
      "type": "VEC3"
    },
    {
      "bufferView": 0,
      "componentType": 5125,
      "count": 14904,
      "max": [
        2608
      ],
      "min": [
        0
      ],
      "type": "SCALAR"
    }
  ],
  "asset": {
    "extras": {
      "author": "darwinsenior (https://sketchfab.com/darwinsenior)",
      "license": "CC-BY-4.0 (http://creativecommons.org/licenses/by/4.0/)",
      "source": "https://sketchfab.com/3d-models/stanford-bunny-43f266d6cd6e4c6888b9943557528c0f",
      "title": "Stanford Bunny"
    },
    "generator": "Sketchfab-8.83.0",
    "version": "2.0"
  },
  "bufferViews": [
    {
      "buffer": 0,
      "byteLength": 59616,
      "byteOffset": 0,
      "name": "floatBufferViews",
      "target": 34963
    },
    {
      "buffer": 0,
      "byteLength": 62616,
      "byteOffset": 59616,
      "byteStride": 12,
      "name": "floatBufferViews",
      "target": 34962
    }
  ],
  "buffers": [
    {
      "byteLength": 122232,
      "uri": "scene.bin"
    }
  ],
  "materials": [
    {
      "doubleSided": true,
      "name": "material_0",
      "pbrMetallicRoughness": {
        "baseColorFactor": [
          1,
          1,
          1,
          1
        ],
        "metallicFactor": 0,
        "roughnessFactor": 0.59999999999999998
      }
    }
  ],
  "meshes": [
    {
      "primitives": [
        {
          "attributes": {
            "NORMAL": 1,
            "POSITION": 0
          },
          "indices": 2,
          "material": 0,
          "mode": 4
        }
      ]
    }
  ],
  "nodes": [
    {
      "children": [
        1
      ],
      "name": "RootNode (gltf orientation matrix)",
      "rotation": [
        -0.70710678118654746,
        -0,
        -0,
        0.70710678118654757
      ]
    },
    {
      "children": [
        2
      ],
      "name": "RootNode (model correction matrix)"
    },
    {
      "children": [
        3
      ],
      "name": "55ae90b10c5c401ebb97a3808b2c07ac.obj.cleaner.materialmerger.gles"
    },
    {
      "mesh": 0,
      "name": ""
    }
  ],
  "scene": 0,
  "scenes": [
    {
      "name": "OSG_Scene",
      "nodes": [
        0
      ]
    }
  ]
}

